<svg xmlns="http://www.w3.org/2000/svg" viewBox="0 0 500 500"><g id="freepik--background-simple--inject-877"><path d="M270.83,473.78s100.89-25.1,162.51-110,.52-137.14-25.49-188.31S383.7,81.59,325.18,51,224.35,29.57,180.6,65.73,102.53,144.09,73.48,187.39,30,269.46,59.31,306.26s51,37.15,58.94,67.18S185.94,491.4,270.83,473.78Z" style="fill:#70B524"></path><path d="M270.83,473.78s100.89-25.1,162.51-110,.52-137.14-25.49-188.31S383.7,81.59,325.18,51,224.35,29.57,180.6,65.73,102.53,144.09,73.48,187.39,30,269.46,59.31,306.26s51,37.15,58.94,67.18S185.94,491.4,270.83,473.78Z" style="fill:#fff;opacity:0.7000000000000001"></path></g><g id="freepik--thread-2--inject-877"><path d="M394.63,464a.48.48,0,0,1-.26-.07l-6.88-4.2a.56.56,0,0,1-.23-.31.53.53,0,0,1,.06-.37l9.1-14.9a.48.48,0,0,1,.31-.23.49.49,0,0,1,.37.06l6.88,4.2a.5.5,0,0,1,.17.69l-9.1,14.89A.47.47,0,0,1,394.63,464Zm-6.19-4.86,6,3.68L403,448.81l-6-3.67Z" style="fill:#263238"></path><path d="M337.61,429.25a.5.5,0,0,1-.26-.08L330.48,425a.48.48,0,0,1-.23-.31.5.5,0,0,1,.06-.38l9.09-14.9a.5.5,0,0,1,.69-.16l6.88,4.19a.5.5,0,0,1,.16.69L338,429A.51.51,0,0,1,337.61,429.25Zm-6.19-4.86,6,3.67L346,414l-6-3.68Z" style="fill:#263238"></path><path d="M384,466a.5.5,0,0,1-.26-.08l-50.14-30.6a.48.48,0,0,1-.22-.3.5.5,0,0,1,.06-.38L350,407.43a.5.5,0,0,1,.69-.17l50.13,30.6a.5.5,0,0,1,.17.69l-16.61,27.22a.5.5,0,0,1-.31.22Zm-49.45-31.27,49.29,30.08,16.09-26.36-49.29-30.08Z" style="fill:#263238"></path><path d="M376.58,451.09a.51.51,0,0,1-.5-.42L372,424.47a.51.51,0,0,1,.42-.57.5.5,0,0,1,.57.42l4.06,26.19a.49.49,0,0,1-.42.57Z" style="fill:#263238"></path><path d="M378.17,461.37a.49.49,0,0,1-.49-.42l-1-6.29a.49.49,0,0,1,.42-.57.5.5,0,0,1,.57.41l1,6.3a.5.5,0,0,1-.41.57Z" style="fill:#263238"></path><path d="M368,430.94a.5.5,0,0,1-.49-.42L366,420.8a.49.49,0,0,1,.41-.57.5.5,0,0,1,.57.41l1.51,9.72a.5.5,0,0,1-.42.57Z" style="fill:#263238"></path><path d="M372.15,457.7a.5.5,0,0,1-.49-.42l-3.54-22.81a.51.51,0,0,1,.42-.57.5.5,0,0,1,.57.42l3.54,22.8a.5.5,0,0,1-.42.57Z" style="fill:#263238"></path><path d="M364.7,453.15a.49.49,0,0,1-.49-.42l-5.65-36.48a.49.49,0,0,1,.41-.57.5.5,0,0,1,.57.42l5.66,36.48a.51.51,0,0,1-.42.57Z" style="fill:#263238"></path><path d="M354.67,427a.5.5,0,0,1-.49-.42L352,412.23a.5.5,0,1,1,1-.15l2.22,14.29a.49.49,0,0,1-.42.57Z" style="fill:#263238"></path><path d="M358.11,449.13a.49.49,0,0,1-.49-.42l-2.8-18.06a.5.5,0,0,1,1-.15l2.8,18.06a.51.51,0,0,1-.42.57Z" style="fill:#263238"></path><path d="M378.76,436.57a.5.5,0,0,1-.12-1l11.07-2.68a.51.51,0,0,1,.61.37.5.5,0,0,1-.37.6l-11.07,2.68Z" style="fill:#263238"></path><path d="M380.85,442.17a.5.5,0,0,1-.12-1l11.07-2.68a.51.51,0,0,1,.61.37.5.5,0,0,1-.37.6L381,442.15Z" style="fill:#263238"></path><path d="M382.93,447.77a.5.5,0,0,1-.48-.39.49.49,0,0,1,.37-.6l11.07-2.68a.5.5,0,0,1,.6.37.49.49,0,0,1-.36.6l-11.08,2.68Z" style="fill:#263238"></path><path d="M339.45,427.52a.49.49,0,0,1-.48-.38.5.5,0,0,1,.37-.61l11.07-2.68a.5.5,0,0,1,.23,1l-11.07,2.68Z" style="fill:#263238"></path><path d="M341.54,433.12a.51.51,0,0,1-.49-.38.52.52,0,0,1,.37-.61l11.08-2.68a.5.5,0,0,1,.6.37.51.51,0,0,1-.37.61l-11.07,2.68Z" style="fill:#263238"></path><path d="M343.63,438.72a.5.5,0,0,1-.49-.38.51.51,0,0,1,.37-.61l11.07-2.68a.52.52,0,0,1,.61.37.51.51,0,0,1-.37.61l-11.07,2.68Z" style="fill:#263238"></path><path d="M321.77,468.63a20.09,20.09,0,0,1-13.48-4.77,17.31,17.31,0,0,1-5.16-8.85,19.57,19.57,0,0,1-10-.11.51.51,0,0,1-.36-.62.5.5,0,0,1,.61-.35,18.35,18.35,0,0,0,9.49.15,31.21,31.21,0,0,1,1.22-16.76c2.3-6.28,6.22-9.92,10.74-10H315a4.61,4.61,0,0,1,4.45,2.71c1.95,4.09-.26,11.81-5.05,17.56a21.91,21.91,0,0,1-10.22,7.12,16.31,16.31,0,0,0,4.81,8.38c10.39,9,27.66,3.47,38.34-7.11,4.67-4.63,8.58-6.72,11.63-6.2a4.4,4.4,0,0,1,3.2,2.2.5.5,0,1,1-.89.44,3.46,3.46,0,0,0-2.5-1.66c-1.86-.3-5.23.48-10.73,5.93C340.87,463.77,330.88,468.63,321.77,468.63ZM315,428.34h-.08c-4.08.05-7.66,3.45-9.82,9.32a30.35,30.35,0,0,0-1.14,16.13A21.43,21.43,0,0,0,313.6,447c4.47-5.38,6.68-12.78,4.91-16.49A3.63,3.63,0,0,0,315,428.34Z" style="fill:#263238"></path></g><g id="freepik--thread-1--inject-877"><path d="M141.76,104.36h-.14l-9.1-2.47a.52.52,0,0,1-.35-.62l5.35-19.72a.54.54,0,0,1,.24-.3.55.55,0,0,1,.38,0l9.1,2.47a.52.52,0,0,1,.35.62L142.24,104a.53.53,0,0,1-.24.31A.5.5,0,0,1,141.76,104.36ZM133.27,101l8.13,2.21,5.09-18.75-8.13-2.21Z" style="fill:#263238"></path><path d="M217.21,124.85l-.13,0-9.1-2.47a.53.53,0,0,1-.3-.23.51.51,0,0,1-.05-.38L213,102a.48.48,0,0,1,.24-.3.46.46,0,0,1,.38,0l9.1,2.47a.5.5,0,0,1,.35.61l-5.35,19.72A.51.51,0,0,1,217.21,124.85Zm-8.48-3.32,8.13,2.2L222,105l-8.13-2.21Z" style="fill:#263238"></path><path d="M205.9,130.53l-.13,0-66.36-18a.48.48,0,0,1-.3-.24.44.44,0,0,1-.05-.37l9.78-36a.5.5,0,0,1,.61-.35l66.36,18a.51.51,0,0,1,.35.62l-9.78,36a.47.47,0,0,1-.23.3A.45.45,0,0,1,205.9,130.53Zm-65.75-18.87,65.4,17.76,9.52-35.06-65.4-17.75Z" style="fill:#263238"></path><path d="M175.66,119a.52.52,0,0,1-.46-.29L162.08,90.55a.5.5,0,0,1,.9-.42l13.13,28.12a.49.49,0,0,1-.24.66A.41.41,0,0,1,175.66,119Z" style="fill:#263238"></path><path d="M160.53,86.55a.48.48,0,0,1-.45-.29l-3.15-6.75a.5.5,0,1,1,.9-.42L161,85.84a.5.5,0,0,1-.24.67A.52.52,0,0,1,160.53,86.55Z" style="fill:#263238"></path><path d="M183.62,121.12a.48.48,0,0,1-.45-.29L178.3,110.4a.5.5,0,0,1,.9-.42l4.87,10.43a.5.5,0,0,1-.24.67A.52.52,0,0,1,183.62,121.12Z" style="fill:#263238"></path><path d="M176.77,106.44a.48.48,0,0,1-.45-.28L164.89,81.67a.49.49,0,0,1,.24-.66.5.5,0,0,1,.67.24l11.42,24.48a.5.5,0,0,1-.24.67A.52.52,0,0,1,176.77,106.44Z" style="fill:#263238"></path><path d="M193.48,123.8a.52.52,0,0,1-.46-.29L174.75,84.35a.5.5,0,1,1,.9-.42l18.28,39.16a.49.49,0,0,1-.24.66A.54.54,0,0,1,193.48,123.8Z" style="fill:#263238"></path><path d="M202.2,126.17a.49.49,0,0,1-.45-.29l-7.17-15.35a.5.5,0,0,1,.24-.66.5.5,0,0,1,.67.24l7.16,15.34a.5.5,0,0,1-.24.67A.54.54,0,0,1,202.2,126.17Z" style="fill:#263238"></path><path d="M193,106.39a.49.49,0,0,1-.45-.29l-9.05-19.38a.5.5,0,0,1,.24-.67.51.51,0,0,1,.67.24l9,19.39a.49.49,0,0,1-.24.66A.54.54,0,0,1,193,106.39Z" style="fill:#263238"></path><path d="M153.25,114.51a.5.5,0,0,1-.43-.25.51.51,0,0,1,.18-.69l11.57-6.63a.52.52,0,0,1,.69.19.51.51,0,0,1-.19.68l-11.57,6.63A.45.45,0,0,1,153.25,114.51Z" style="fill:#263238"></path><path d="M149.07,108.9a.51.51,0,0,1-.43-.26.5.5,0,0,1,.19-.68l11.57-6.63a.5.5,0,0,1,.49.87l-11.57,6.63A.55.55,0,0,1,149.07,108.9Z" style="fill:#263238"></path><path d="M144.9,103.28a.52.52,0,0,1-.44-.25.51.51,0,0,1,.19-.68l11.57-6.63a.49.49,0,0,1,.68.18.51.51,0,0,1-.18.69l-11.57,6.63A.57.57,0,0,1,144.9,103.28Z" style="fill:#263238"></path><path d="M200.39,111.83a.5.5,0,0,1-.25-.93l11.57-6.63a.49.49,0,0,1,.68.18.51.51,0,0,1-.18.69l-11.57,6.63A.54.54,0,0,1,200.39,111.83Z" style="fill:#263238"></path><path d="M196.21,106.22a.5.5,0,0,1-.24-.93l11.57-6.63a.49.49,0,1,1,.49.86l-11.57,6.63A.45.45,0,0,1,196.21,106.22Z" style="fill:#263238"></path><path d="M192,100.61a.51.51,0,0,1-.44-.25.52.52,0,0,1,.19-.69L203.36,93a.51.51,0,0,1,.68.19.49.49,0,0,1-.18.68l-11.57,6.63A.47.47,0,0,1,192,100.61Z" style="fill:#263238"></path><path d="M237.53,96.53a5.15,5.15,0,0,1-4-1.84c-3.52-3.94-3.54-13.3-.06-21.3a25.48,25.48,0,0,1,9.21-11.34,19.24,19.24,0,0,0-8.22-8c-14.68-6.78-32.32,5.13-40.89,20.56-3.73,6.7-7.42,10.31-11,10.73A5.09,5.09,0,0,1,178.38,84a.5.5,0,1,1,.74-.67h0a4.14,4.14,0,0,0,3.42,1.08c2.21-.27,5.77-2.26,10.19-10.22,8.79-15.82,27-28,42.19-21a20.21,20.21,0,0,1,8.69,8.31,22.82,22.82,0,0,1,11.28-3.16.5.5,0,0,1,.51.49.52.52,0,0,1-.49.51,21.64,21.64,0,0,0-10.83,3,36.42,36.42,0,0,1,4.14,19.26c-.53,7.79-3.72,13.13-8.75,14.66A6.84,6.84,0,0,1,237.53,96.53Zm5.66-33.66a25.19,25.19,0,0,0-8.76,10.92c-3.28,7.55-3.34,16.63-.12,20.24a4.35,4.35,0,0,0,4.87,1.24c4.61-1.4,7.54-6.42,8-13.76A35.58,35.58,0,0,0,243.19,62.87Z" style="fill:#263238"></path></g><g id="freepik--buttons-2--inject-877"><path d="M418.35,155.77a24.08,24.08,0,1,1,24.08-24.08A24.1,24.1,0,0,1,418.35,155.77Zm0-47.16a23.08,23.08,0,1,0,23.08,23.08A23.11,23.11,0,0,0,418.35,108.61Z" style="fill:#263238"></path><path d="M418.35,151.93a20.24,20.24,0,1,1,20.23-20.24A20.26,20.26,0,0,1,418.35,151.93Zm0-39.47a19.24,19.24,0,1,0,19.23,19.23A19.26,19.26,0,0,0,418.35,112.46Z" style="fill:#263238"></path><path d="M413.25,131.43a2.25,2.25,0,1,1,2.25-2.24A2.24,2.24,0,0,1,413.25,131.43Zm0-3.49a1.25,1.25,0,1,0,1.25,1.25A1.25,1.25,0,0,0,413.25,127.94Z" style="fill:#263238"></path><path d="M421.52,129.69a2.25,2.25,0,1,1,2.25-2.25A2.24,2.24,0,0,1,421.52,129.69Zm0-3.49a1.25,1.25,0,1,0,1.25,1.24A1.25,1.25,0,0,0,421.52,126.2Z" style="fill:#263238"></path><path d="M415.17,138.72a2.24,2.24,0,1,1,2.25-2.24A2.24,2.24,0,0,1,415.17,138.72Zm0-3.48a1.24,1.24,0,1,0,1.25,1.24A1.24,1.24,0,0,0,415.17,135.24Z" style="fill:#263238"></path><path d="M423.44,137a2.25,2.25,0,1,1,2.24-2.24A2.24,2.24,0,0,1,423.44,137Zm0-3.49a1.25,1.25,0,1,0,1.24,1.25A1.24,1.24,0,0,0,423.44,133.49Z" style="fill:#263238"></path><path d="M332.94,111.26A15.27,15.27,0,1,1,348.21,96,15.29,15.29,0,0,1,332.94,111.26Zm0-29.54A14.27,14.27,0,1,0,347.21,96,14.28,14.28,0,0,0,332.94,81.72Z" style="fill:#263238"></path><path d="M332.94,108.85A12.86,12.86,0,1,1,345.8,96,12.88,12.88,0,0,1,332.94,108.85Zm0-24.72A11.86,11.86,0,1,0,344.8,96,11.87,11.87,0,0,0,332.94,84.13Z" style="fill:#263238"></path><path d="M329.75,96a1.59,1.59,0,1,1,1.59-1.59A1.59,1.59,0,0,1,329.75,96Zm0-2.18a.59.59,0,1,0,.59.59A.58.58,0,0,0,329.75,93.83Z" style="fill:#263238"></path><path d="M334.93,94.92a1.6,1.6,0,1,1,1.59-1.59A1.59,1.59,0,0,1,334.93,94.92Zm0-2.19a.6.6,0,1,0,.59.6A.59.59,0,0,0,334.93,92.73Z" style="fill:#263238"></path><path d="M331,100.58A1.6,1.6,0,1,1,332.54,99,1.59,1.59,0,0,1,331,100.58Zm0-2.19a.6.6,0,1,0,.59.6A.59.59,0,0,0,331,98.39Z" style="fill:#263238"></path><path d="M336.13,99.49a1.6,1.6,0,1,1,1.59-1.6A1.6,1.6,0,0,1,336.13,99.49Zm0-2.19a.6.6,0,1,0,.59.59A.59.59,0,0,0,336.13,97.3Z" style="fill:#263238"></path><path d="M388.42,89.46a15.28,15.28,0,1,1,15.27-15.28A15.3,15.3,0,0,1,388.42,89.46Zm0-29.55a14.28,14.28,0,1,0,14.27,14.27A14.28,14.28,0,0,0,388.42,59.91Z" style="fill:#263238"></path><path d="M388.42,87.05a12.87,12.87,0,1,1,12.86-12.87A12.88,12.88,0,0,1,388.42,87.05Zm0-24.73a11.87,11.87,0,1,0,11.86,11.86A11.87,11.87,0,0,0,388.42,62.32Z" style="fill:#263238"></path><path d="M385.23,74.21a1.6,1.6,0,1,1,1.59-1.6A1.6,1.6,0,0,1,385.23,74.21Zm0-2.19a.6.6,0,1,0,.59.59A.6.6,0,0,0,385.23,72Z" style="fill:#263238"></path><path d="M390.41,73.11A1.59,1.59,0,1,1,392,71.52,1.6,1.6,0,0,1,390.41,73.11Zm0-2.18a.59.59,0,1,0,.59.59A.59.59,0,0,0,390.41,70.93Z" style="fill:#263238"></path><path d="M386.43,78.77A1.59,1.59,0,1,1,388,77.18,1.59,1.59,0,0,1,386.43,78.77Zm0-2.18a.59.59,0,1,0,.59.59A.58.58,0,0,0,386.43,76.59Z" style="fill:#263238"></path><path d="M391.61,77.68a1.59,1.59,0,1,1,1.59-1.59A1.59,1.59,0,0,1,391.61,77.68Zm0-2.18a.59.59,0,1,0,0,1.18.59.59,0,1,0,0-1.18Z" style="fill:#263238"></path></g><g id="freepik--buttons-1--inject-877"><path d="M139.92,448.16A24.08,24.08,0,1,1,164,424.08,24.11,24.11,0,0,1,139.92,448.16Zm0-47.16A23.08,23.08,0,1,0,163,424.08,23.12,23.12,0,0,0,139.92,401Z" style="fill:#263238"></path><path d="M139.92,444.32a20.24,20.24,0,1,1,20.23-20.24A20.26,20.26,0,0,1,139.92,444.32Zm0-39.47a19.24,19.24,0,1,0,19.23,19.23A19.26,19.26,0,0,0,139.92,404.85Z" style="fill:#263238"></path><path d="M134.82,423.82a2.25,2.25,0,1,1,2.25-2.24A2.24,2.24,0,0,1,134.82,423.82Zm0-3.49a1.25,1.25,0,1,0,1.25,1.25A1.24,1.24,0,0,0,134.82,420.33Z" style="fill:#263238"></path><path d="M143.09,422.08a2.25,2.25,0,1,1,2.24-2.25A2.24,2.24,0,0,1,143.09,422.08Zm0-3.49a1.25,1.25,0,1,0,1.24,1.24A1.24,1.24,0,0,0,143.09,418.59Z" style="fill:#263238"></path><path d="M136.74,431.11a2.25,2.25,0,1,1,2.24-2.24A2.24,2.24,0,0,1,136.74,431.11Zm0-3.49a1.25,1.25,0,1,0,1.24,1.25A1.24,1.24,0,0,0,136.74,427.62Z" style="fill:#263238"></path><path d="M145,429.37a2.25,2.25,0,1,1,2.24-2.25A2.25,2.25,0,0,1,145,429.37Zm0-3.49a1.25,1.25,0,1,0,1.24,1.24A1.25,1.25,0,0,0,145,425.88Z" style="fill:#263238"></path><path d="M82.35,427.57A15.28,15.28,0,1,1,97.62,412.3,15.3,15.3,0,0,1,82.35,427.57Zm0-29.55A14.28,14.28,0,1,0,96.62,412.3,14.3,14.3,0,0,0,82.35,398Z" style="fill:#263238"></path><path d="M82.35,425.16A12.87,12.87,0,1,1,95.21,412.3,12.88,12.88,0,0,1,82.35,425.16Zm0-24.73A11.87,11.87,0,1,0,94.21,412.3,11.89,11.89,0,0,0,82.35,400.43Z" style="fill:#263238"></path><path d="M79.15,412.32a1.6,1.6,0,1,1,1.6-1.59A1.6,1.6,0,0,1,79.15,412.32Zm0-2.19a.6.6,0,1,0,.6.6A.6.6,0,0,0,79.15,410.13Z" style="fill:#263238"></path><path d="M84.33,411.23a1.6,1.6,0,1,1,1.6-1.6A1.6,1.6,0,0,1,84.33,411.23Zm0-2.19a.6.6,0,1,0,.6.59A.6.6,0,0,0,84.33,409Z" style="fill:#263238"></path><path d="M80.36,416.89a1.6,1.6,0,1,1,1.59-1.6A1.6,1.6,0,0,1,80.36,416.89Zm0-2.19a.6.6,0,1,0,.59.59A.6.6,0,0,0,80.36,414.7Z" style="fill:#263238"></path><path d="M85.54,415.79a1.59,1.59,0,1,1,1.59-1.59A1.6,1.6,0,0,1,85.54,415.79Zm0-2.18a.59.59,0,1,0,.59.59A.59.59,0,0,0,85.54,413.61Z" style="fill:#263238"></path><path d="M158.8,397.16a15.27,15.27,0,1,1,15.27-15.27A15.29,15.29,0,0,1,158.8,397.16Zm0-29.54a14.27,14.27,0,1,0,14.27,14.27A14.28,14.28,0,0,0,158.8,367.62Z" style="fill:#263238"></path><path d="M158.8,394.75a12.86,12.86,0,1,1,12.86-12.86A12.88,12.88,0,0,1,158.8,394.75Zm0-24.72a11.86,11.86,0,1,0,11.86,11.86A11.87,11.87,0,0,0,158.8,370Z" style="fill:#263238"></path><path d="M155.61,381.91a1.59,1.59,0,1,1,1.59-1.59A1.59,1.59,0,0,1,155.61,381.91Zm0-2.18a.58.58,0,0,0-.59.59.59.59,0,0,0,1.18,0A.58.58,0,0,0,155.61,379.73Z" style="fill:#263238"></path><path d="M160.79,380.82a1.6,1.6,0,1,1,1.59-1.59A1.59,1.59,0,0,1,160.79,380.82Zm0-2.19a.6.6,0,1,0,.59.6A.59.59,0,0,0,160.79,378.63Z" style="fill:#263238"></path><path d="M156.81,386.48a1.6,1.6,0,1,1,1.6-1.59A1.6,1.6,0,0,1,156.81,386.48Zm0-2.19a.6.6,0,1,0,.6.6A.6.6,0,0,0,156.81,384.29Z" style="fill:#263238"></path><path d="M162,385.39a1.6,1.6,0,1,1,1.6-1.6A1.6,1.6,0,0,1,162,385.39Zm0-2.19a.6.6,0,1,0,.6.59A.6.6,0,0,0,162,383.2Z" style="fill:#263238"></path></g><g id="freepik--Thimble--inject-877"><path d="M86.27,114.29a.51.51,0,0,1-.35-.15L54.22,82.45a.5.5,0,0,1,0-.68L72.48,60.35a.51.51,0,0,1,.67-.08l36.27,26.34a.47.47,0,0,1,.2.34.5.5,0,0,1-.11.39L86.65,114.11a.5.5,0,0,1-.36.18Zm-31-32.22,31,31L108.39,87.1,72.94,61.36Z" style="fill:#263238"></path><path d="M87.79,118.44a2.75,2.75,0,0,1-2.09-4.55l23.44-27.46a2.77,2.77,0,0,1,3.89-.31,2.77,2.77,0,0,1,.3,3.89L89.89,117.47a2.74,2.74,0,0,1-1.88,1Zm23.45-32h-.14a1.7,1.7,0,0,0-1.2.61L86.46,114.54a1.76,1.76,0,0,0-.42,1.28,1.75,1.75,0,0,0,1.89,1.61,1.74,1.74,0,0,0,1.2-.61l23.44-27.46h0a1.76,1.76,0,0,0,.42-1.28,1.8,1.8,0,0,0-.61-1.2A1.76,1.76,0,0,0,111.24,86.46Z" style="fill:#263238"></path><path d="M64.81,86a2.19,2.19,0,0,1-1.42-.52A2.13,2.13,0,0,1,62.63,84a2.16,2.16,0,0,1,.51-1.6,2.19,2.19,0,0,1,3.09-.24h0A2.13,2.13,0,0,1,67,83.61,2.18,2.18,0,0,1,64.81,86Zm0-3.37h-.09a1.14,1.14,0,0,0-.81.41,1.2,1.2,0,0,0-.29.87,1.24,1.24,0,0,0,.42.81,1.18,1.18,0,0,0,1.67-.13,1.17,1.17,0,0,0-.13-1.68h0A1.16,1.16,0,0,0,64.81,82.6Z" style="fill:#263238"></path><path d="M68.7,81.41a2.19,2.19,0,0,1-1.42-.52A2.18,2.18,0,0,1,67,77.81a2.17,2.17,0,0,1,3.08-.25h0a2.13,2.13,0,0,1,.76,1.49,2.16,2.16,0,0,1-.51,1.6A2.22,2.22,0,0,1,68.7,81.41Zm0-3.37h-.09a1.18,1.18,0,0,0-.81.41,1.17,1.17,0,0,0,.13,1.68A1.19,1.19,0,0,0,69.61,80a1.19,1.19,0,0,0-.14-1.68h0A1.2,1.2,0,0,0,68.7,78Z" style="fill:#263238"></path><path d="M72.59,76.86a2.2,2.2,0,0,1-2.18-2,2.15,2.15,0,0,1,.52-1.59,2.19,2.19,0,1,1,3.33,2.84,2.21,2.21,0,0,1-1.5.76Zm0-3.38a1.17,1.17,0,0,0-.9.42,1.18,1.18,0,0,0,1,1.95,1.18,1.18,0,0,0,.81-.41,1.2,1.2,0,0,0-.14-1.68A1.16,1.16,0,0,0,72.59,73.48Z" style="fill:#263238"></path><path d="M76.48,72.3a2.19,2.19,0,1,1,1.42-3.85h0a2.19,2.19,0,0,1-1.42,3.85Zm0-3.38a1.17,1.17,0,0,0-.9.42,1.19,1.19,0,1,0,1.68-.13h0A1.22,1.22,0,0,0,76.48,68.92Z" style="fill:#263238"></path><path d="M71.25,87.62a2.18,2.18,0,0,1-1.42-.52,2.13,2.13,0,0,1-.76-1.5,2.19,2.19,0,0,1,2-2.35,2.19,2.19,0,0,1,1.59.52h0a2.13,2.13,0,0,1,.76,1.49,2.19,2.19,0,0,1-2,2.36Zm0-3.38h-.09a1.14,1.14,0,0,0-.81.41,1.2,1.2,0,0,0-.29.87,1.24,1.24,0,0,0,.42.81,1.22,1.22,0,0,0,.86.28,1.15,1.15,0,0,0,.81-.42,1.17,1.17,0,0,0,.29-.86,1.19,1.19,0,0,0-.42-.81h0A1.17,1.17,0,0,0,71.25,84.24Z" style="fill:#263238"></path><path d="M75.14,83.06a2.19,2.19,0,1,1,1.42-3.85h0a2.13,2.13,0,0,1,.76,1.49,2.16,2.16,0,0,1-.51,1.6,2.21,2.21,0,0,1-1.5.76Zm0-3.37a1.19,1.19,0,0,0-.77,2.09,1.22,1.22,0,0,0,.86.28,1.19,1.19,0,0,0,.82-.41,1.25,1.25,0,0,0,.28-.87,1.22,1.22,0,0,0-.42-.81h0A1.18,1.18,0,0,0,75.14,79.69Z" style="fill:#263238"></path><path d="M79,78.5A2.19,2.19,0,0,1,77.61,78a2.21,2.21,0,0,1-.76-1.49,2.15,2.15,0,0,1,.52-1.59,2.19,2.19,0,1,1,3.33,2.84A2.22,2.22,0,0,1,79,78.5Zm0-3.37h-.09a1.18,1.18,0,0,0-.81.41,1.16,1.16,0,0,0-.28.87,1.14,1.14,0,0,0,.41.81,1.19,1.19,0,1,0,1.54-1.81h0A1.18,1.18,0,0,0,79,75.13Z" style="fill:#263238"></path><path d="M82.92,74a2.19,2.19,0,0,1-1.66-3.61,2.13,2.13,0,0,1,1.49-.76,2.17,2.17,0,0,1,1.59.51h0A2.19,2.19,0,0,1,82.92,74Zm0-3.38h-.09A1.19,1.19,0,0,0,82,71a1.18,1.18,0,0,0,.13,1.67,1.19,1.19,0,0,0,1.68-.13,1.22,1.22,0,0,0,.28-.86,1.2,1.2,0,0,0-.42-.82h0A1.18,1.18,0,0,0,82.92,70.57Z" style="fill:#263238"></path><path d="M72.94,92.92a2.16,2.16,0,0,1-1.41-.52,2.19,2.19,0,1,1,2.84-3.34h0a2.19,2.19,0,0,1-1.43,3.86Zm0-3.38a1.19,1.19,0,1,0,.77.29h0A1.16,1.16,0,0,0,73,89.54Z" style="fill:#263238"></path><path d="M76.84,88.36a2.17,2.17,0,0,1-1.42-.52,2.19,2.19,0,1,1,2.84-3.33h0A2.21,2.21,0,0,1,79,86a2.15,2.15,0,0,1-.52,1.59A2.17,2.17,0,0,1,76.84,88.36Zm0-3.38h-.1a1.18,1.18,0,0,0-.81.41,1.2,1.2,0,0,0,.14,1.68,1.19,1.19,0,0,0,1.67-.14,1.13,1.13,0,0,0,.28-.86,1.14,1.14,0,0,0-.41-.81h0A1.17,1.17,0,0,0,76.84,85Z" style="fill:#263238"></path><path d="M80.72,83.8a2.16,2.16,0,0,1-1.41-.52,2.13,2.13,0,0,1-.76-1.49,2.16,2.16,0,0,1,.51-1.6A2.19,2.19,0,1,1,80.9,83.8Zm0-3.37a1.21,1.21,0,0,0-.91.41,1.23,1.23,0,0,0-.28.87,1.19,1.19,0,0,0,.42.81,1.21,1.21,0,0,0,.86.28,1.19,1.19,0,0,0-.09-2.37Z" style="fill:#263238"></path><path d="M84.62,79.25a2.17,2.17,0,0,1-1.42-.53A2.19,2.19,0,1,1,86,75.39h0a2.19,2.19,0,0,1,.24,3.09,2.21,2.21,0,0,1-1.49.76Zm0-3.38A1.18,1.18,0,0,0,83.85,78a1.17,1.17,0,0,0,.86.28A1.18,1.18,0,0,0,85.8,77a1.17,1.17,0,0,0-1.18-1.09Z" style="fill:#263238"></path><path d="M78.54,93.84a2.19,2.19,0,0,1-1.42-.52,2.13,2.13,0,0,1-.76-1.49A2.19,2.19,0,0,1,80,90h0a2.18,2.18,0,0,1-1.42,3.85Zm0-3.37h-.09a1.18,1.18,0,0,0-.81.41,1.17,1.17,0,0,0,.13,1.68,1.18,1.18,0,0,0,1.67-.13,1.19,1.19,0,0,0-.13-1.68h0A1.22,1.22,0,0,0,78.54,90.47Z" style="fill:#263238"></path><path d="M82.43,89.29A2.19,2.19,0,0,1,81,88.76a2.18,2.18,0,0,1-.24-3.08,2.19,2.19,0,0,1,3.08-.25,2.21,2.21,0,0,1,.25,3.09,2.21,2.21,0,0,1-1.5.76Zm0-3.38a1.17,1.17,0,0,0-.9.42,1.13,1.13,0,0,0-.28.86,1.14,1.14,0,0,0,.41.81,1.17,1.17,0,0,0,.86.28,1.19,1.19,0,0,0,.82-.41,1.19,1.19,0,0,0-.14-1.68A1.18,1.18,0,0,0,82.43,85.91Z" style="fill:#263238"></path><path d="M74.38,98.71A2.11,2.11,0,0,1,73,98.18a2.19,2.19,0,0,1-.25-3.08,2.21,2.21,0,0,1,3.09-.25h0a2.21,2.21,0,0,1,.76,1.5,2.19,2.19,0,0,1-2,2.35Zm0-3.38H74.3a1.24,1.24,0,0,0-.82.42,1.19,1.19,0,0,0,.14,1.67,1.13,1.13,0,0,0,.86.28,1.18,1.18,0,0,0,1.09-1.27,1.19,1.19,0,0,0-.41-.82h0A1.22,1.22,0,0,0,74.39,95.33Z" style="fill:#263238"></path><path d="M67.09,92.49A2.17,2.17,0,0,1,65.68,92a2.19,2.19,0,1,1,3.6-1.84,2.17,2.17,0,0,1-.52,1.6,2.21,2.21,0,0,1-1.49.76Zm0-3.38a1.18,1.18,0,0,0-.77,2.09A1.18,1.18,0,0,0,68,91.07a1.15,1.15,0,0,0,.28-.87,1.18,1.18,0,0,0-.41-.81h0A1.18,1.18,0,0,0,67.1,89.11Z" style="fill:#263238"></path><path d="M86.32,84.73a2.19,2.19,0,1,1,1.42-3.86h0a2.19,2.19,0,0,1-1.42,3.86Zm0-3.38a1.19,1.19,0,0,0-.77,2.09,1.18,1.18,0,1,0,1.54-1.8h0A1.12,1.12,0,0,0,86.32,81.35Z" style="fill:#263238"></path><path d="M90.21,80.17a2.18,2.18,0,0,1-1.66-3.61,2.18,2.18,0,0,1,3.08-.24h0a2.19,2.19,0,0,1-1.42,3.85Zm0-3.38h-.09a1.14,1.14,0,0,0-.81.41,1.19,1.19,0,1,0,1.81,1.54,1.21,1.21,0,0,0,.28-.86,1.15,1.15,0,0,0-.42-.81h0A1.13,1.13,0,0,0,90.21,76.79Z" style="fill:#263238"></path></g><g id="freepik--hand-1--inject-877"><path d="M255.85,182.27s4.82,14.48,5.86,16.2.69,7.93-10.34,8.62-33.1,3.1-41-.34-11-2.42-11.38-5.86,14.83-16.55,27.24-24.83S255.85,182.27,255.85,182.27Z" style="fill:#263238"></path><path d="M224.79,209.06c-6,0-11.44-.46-14.65-1.85a53,53,0,0,0-6.83-2.41c-3-.87-4.6-1.35-4.85-3.86-.4-4,16-17.65,27.46-25.29,12.58-8.39,29.53,5.64,30.25,6.24a.48.48,0,0,1,.15.22c1.66,5,5,14.78,5.82,16.11a4.85,4.85,0,0,1-.21,4.49c-1,2-3.72,4.46-10.53,4.88-1.73.11-3.74.26-5.92.42C239.13,208.49,231.54,209.06,224.79,209.06Zm10.12-35a15,15,0,0,0-8.44,2.45c-13.41,8.94-27.3,21.47-27,24.36.18,1.76,1.07,2.1,4.13,3a53.82,53.82,0,0,1,6.95,2.45c6.57,2.86,23.6,1.57,34.87.73,2.18-.17,4.19-.32,5.92-.43,6.35-.39,8.79-2.58,9.72-4.34a3.86,3.86,0,0,0,.23-3.52c-1-1.68-5.34-14.59-5.86-16.17C254.29,181.65,244.55,174,234.91,174Z" style="fill:#263238"></path><path d="M196.55,198.13S229,206.06,240,202.27s22.75-10.69,33.1-10,7.58,2.76,11.37-9.31,3.8-20.34,3.8-20.34l68.95-40.34s37.58,76.19,43.44,86.88,30,96.19,30,96.19S304.8,333.28,265.85,345,201,366.72,201,366.72,159,258.81,154.14,249.5,140.7,205,140.7,205Z" style="fill:#70B524"></path><path d="M201,367.22a.51.51,0,0,1-.47-.32c-.42-1.08-42.1-108-46.86-117.17s-13.14-43.15-13.49-44.59a.51.51,0,0,1,.07-.4.47.47,0,0,1,.35-.21l55.86-6.9a.56.56,0,0,1,.18,0c.32.08,32.39,7.85,43.16,4.15,3.14-1.08,6.41-2.44,9.57-3.76,8-3.32,16.22-6.76,23.72-6.26,1.66.11,3,.26,4.05.37,4,.45,4,.45,5.34-4.27.36-1.33.82-3,1.48-5.06,3.72-11.84,3.77-20.11,3.77-20.19a.5.5,0,0,1,.24-.43l69-40.34a.49.49,0,0,1,.39,0,.53.53,0,0,1,.31.26c.37.76,37.64,76.3,43.43,86.86s29.05,92.8,30,96.29a.51.51,0,0,1-.05.4.54.54,0,0,1-.32.23c-1.26.28-126.27,28.05-164.76,39.64s-64.52,21.6-64.78,21.7A.39.39,0,0,1,201,367.22ZM141.32,205.45c1.11,4.5,8.85,35.3,13.27,43.82,4.62,8.91,43.71,109.08,46.72,116.8,3.68-1.4,28.68-10.81,64.39-21.55C303,333.31,421.16,307,430,305c-2-7.11-24.28-85.49-29.81-95.58S360.21,129.49,357,123l-68.25,39.93a78.47,78.47,0,0,1-3.81,20.2c-.65,2.06-1.1,3.71-1.47,5-1.47,5.33-1.71,5.51-6.41,5-1.05-.12-2.37-.26-4-.37-7.26-.48-15.4,2.9-23.26,6.18-3.18,1.33-6.46,2.7-9.64,3.79-10.86,3.73-41.37-3.55-43.63-4.1Z" style="fill:#263238"></path><path d="M203.89,217.82c0-4.19,2.2-10.84,4.74-17.15-6.91-1.28-12.08-2.54-12.08-2.54L140.7,205s2.64,10.78,5.82,22l13.12,35.25c2.28,5.55,5.08,12.47,8.13,20.11l8.09,17.56s17.52-11.51,26-25,12.52-17.52,27.54-32.54c.95-1,1.89-1.85,2.8-2.68,13.37-12.2,21.55-11.2,21.55-11.2l-20.35-13.66C219.41,208.3,203.89,227.83,203.89,217.82Z" style="fill:#263238"></path><path d="M175.86,300.42a.32.32,0,0,1-.14,0,.51.51,0,0,1-.32-.27l-8.08-17.57c-3.26-8.13-6-14.89-8.15-20.12l-13.12-35.26c-3.16-11.12-5.81-21.93-5.84-22a.51.51,0,0,1,.07-.4.47.47,0,0,1,.35-.21l55.86-6.9a.56.56,0,0,1,.18,0c.05,0,5.24,1.28,12.06,2.54a.51.51,0,0,1,.34.25.5.5,0,0,1,0,.43c-3.12,7.73-4.71,13.43-4.71,17,0,1.2.24,2,.71,2.24,1.07.67,3.74-.68,6.82-2.24,5.89-3,14-7.07,21.72-3.46l20.42,13.69a.5.5,0,0,1,.19.59.49.49,0,0,1-.53.32c-.08,0-8.16-.78-21.16,11.08-.92.84-1.86,1.74-2.78,2.66-15,15-19,19-27.47,32.46s-26,25.07-26.18,25.18A.45.45,0,0,1,175.86,300.42Zm-34.54-95c.58,2.33,2.94,11.77,5.68,21.42l13.1,35.21c2.15,5.21,4.89,12,8.14,20.09l7.82,17c2.88-2,17.84-12.53,25.41-24.56C210,261.06,214,257,229.07,242c.93-.94,1.88-1.84,2.82-2.7,10.08-9.2,17.24-11,20.3-11.3l-19-12.77c-7.25-3.36-15.07.59-20.78,3.48-3.62,1.83-6.24,3.16-7.8,2.2-.79-.48-1.18-1.5-1.18-3.09,0-3.57,1.53-9.21,4.55-16.77-6.06-1.14-10.73-2.25-11.42-2.41Z" style="fill:#263238"></path><line x1="207.25" y1="360.15" x2="210.94" y2="367.52" style="fill:#fff"></line><path d="M210.94,368a.51.51,0,0,1-.45-.27l-3.68-7.38a.49.49,0,0,1,.22-.67.5.5,0,0,1,.67.22l3.69,7.38a.51.51,0,0,1-.22.67A.64.64,0,0,1,210.94,368Z" style="fill:#263238"></path><line x1="214.01" y1="356.46" x2="220.16" y2="367.52" style="fill:#fff"></line><path d="M220.16,368a.49.49,0,0,1-.44-.26l-6.14-11.06a.5.5,0,0,1,.19-.68.51.51,0,0,1,.68.2l6.15,11.06a.51.51,0,0,1-.2.68A.53.53,0,0,1,220.16,368Z" style="fill:#263238"></path><line x1="222" y1="355.23" x2="224.46" y2="364.45" style="fill:#fff"></line><path d="M224.46,365a.5.5,0,0,1-.48-.37l-2.46-9.22a.5.5,0,0,1,.35-.61.49.49,0,0,1,.61.35l2.46,9.22a.49.49,0,0,1-.35.61Z" style="fill:#263238"></path><line x1="226.92" y1="350.93" x2="233.68" y2="362.61" style="fill:#fff"></line><path d="M233.68,363.11a.51.51,0,0,1-.44-.25l-6.75-11.68a.5.5,0,0,1,.86-.5l6.76,11.67a.51.51,0,0,1-.18.69A.59.59,0,0,1,233.68,363.11Z" style="fill:#263238"></path><line x1="239.87" y1="347.6" x2="243.55" y2="354.98" style="fill:#fff"></line><path d="M243.56,355.48a.49.49,0,0,1-.45-.28l-3.69-7.37a.5.5,0,0,1,.9-.45l3.68,7.37a.49.49,0,0,1-.22.67A.46.46,0,0,1,243.56,355.48Z" style="fill:#263238"></path><line x1="246.63" y1="343.92" x2="252.77" y2="354.98" style="fill:#fff"></line><path d="M252.77,355.48a.53.53,0,0,1-.44-.26l-6.14-11.06a.5.5,0,0,1,.87-.49l6.15,11.06a.51.51,0,0,1-.2.69A.5.5,0,0,1,252.77,355.48Z" style="fill:#263238"></path><line x1="254.62" y1="342.69" x2="257.07" y2="351.91" style="fill:#fff"></line><path d="M257.07,352.41a.5.5,0,0,1-.48-.38l-2.46-9.21a.5.5,0,0,1,1-.26l2.46,9.22a.5.5,0,0,1-.36.61Z" style="fill:#263238"></path><line x1="259.53" y1="338.39" x2="266.29" y2="350.06" style="fill:#fff"></line><path d="M266.29,350.56a.5.5,0,0,1-.43-.25l-6.76-11.67a.51.51,0,0,1,.18-.69.5.5,0,0,1,.68.19l6.76,11.67a.49.49,0,0,1-.18.68A.45.45,0,0,1,266.29,350.56Z" style="fill:#263238"></path><line x1="262.45" y1="343.14" x2="266.13" y2="350.52" style="fill:#fff"></line><path d="M266.13,351a.48.48,0,0,1-.44-.28L262,343.37a.5.5,0,0,1,.22-.67.49.49,0,0,1,.67.22l3.69,7.37a.5.5,0,0,1-.22.67A.49.49,0,0,1,266.13,351Z" style="fill:#263238"></path><line x1="269.21" y1="339.46" x2="275.35" y2="350.52" style="fill:#fff"></line><path d="M275.35,351a.51.51,0,0,1-.44-.26l-6.14-11.06A.49.49,0,0,1,269,339a.5.5,0,0,1,.68.19l6.15,11.06a.52.52,0,0,1-.2.69A.5.5,0,0,1,275.35,351Z" style="fill:#263238"></path><line x1="277.19" y1="338.23" x2="279.65" y2="347.45" style="fill:#fff"></line><path d="M279.65,348a.5.5,0,0,1-.48-.38l-2.46-9.21a.5.5,0,0,1,1-.26l2.45,9.22a.49.49,0,0,1-.35.61Z" style="fill:#263238"></path><line x1="282.11" y1="333.93" x2="288.87" y2="345.6" style="fill:#fff"></line><path d="M288.87,346.1a.5.5,0,0,1-.43-.25l-6.76-11.67a.51.51,0,0,1,.18-.69.5.5,0,0,1,.68.19l6.76,11.67a.49.49,0,0,1-.18.68A.47.47,0,0,1,288.87,346.1Z" style="fill:#263238"></path><line x1="291.23" y1="335.55" x2="297.37" y2="346.62" style="fill:#fff"></line><path d="M297.37,347.12a.53.53,0,0,1-.44-.26l-6.14-11.06a.49.49,0,0,1,.19-.68.5.5,0,0,1,.68.19l6.15,11.06a.5.5,0,0,1-.2.68A.51.51,0,0,1,297.37,347.12Z" style="fill:#263238"></path><line x1="299.21" y1="334.33" x2="301.67" y2="343.54" style="fill:#fff"></line><path d="M301.67,344a.49.49,0,0,1-.48-.37l-2.46-9.21a.5.5,0,1,1,1-.26l2.45,9.21a.49.49,0,0,1-.35.62Z" style="fill:#263238"></path><line x1="304.13" y1="330.02" x2="310.89" y2="341.7" style="fill:#fff"></line><path d="M310.89,342.2a.5.5,0,0,1-.43-.25l-6.76-11.67a.5.5,0,1,1,.86-.51l6.76,11.68a.49.49,0,0,1-.18.68A.47.47,0,0,1,310.89,342.2Z" style="fill:#263238"></path><line x1="310.11" y1="333.11" x2="313.8" y2="340.48" style="fill:#fff"></line><path d="M313.8,341a.51.51,0,0,1-.45-.27l-3.69-7.38a.5.5,0,0,1,.9-.44l3.69,7.37a.5.5,0,0,1-.23.67A.44.44,0,0,1,313.8,341Z" style="fill:#263238"></path><line x1="316.87" y1="329.42" x2="323.02" y2="340.48" style="fill:#fff"></line><path d="M323,341a.5.5,0,0,1-.43-.25l-6.15-11.06a.52.52,0,0,1,.2-.69.51.51,0,0,1,.68.2l6.14,11.06a.49.49,0,0,1-.19.68A.54.54,0,0,1,323,341Z" style="fill:#263238"></path><line x1="324.86" y1="328.19" x2="327.32" y2="337.41" style="fill:#fff"></line><path d="M327.32,337.91a.5.5,0,0,1-.49-.37l-2.45-9.22a.49.49,0,0,1,.35-.61.5.5,0,0,1,.61.35l2.46,9.22a.5.5,0,0,1-.35.61Z" style="fill:#263238"></path><line x1="329.77" y1="323.89" x2="336.53" y2="335.57" style="fill:#fff"></line><path d="M336.53,336.07a.5.5,0,0,1-.43-.25l-6.76-11.68a.5.5,0,0,1,.87-.5L337,335.32a.51.51,0,0,1-.19.68A.43.43,0,0,1,336.53,336.07Z" style="fill:#263238"></path><line x1="334.92" y1="325.03" x2="338.61" y2="332.4" style="fill:#fff"></line><path d="M338.61,332.9a.49.49,0,0,1-.45-.28l-3.69-7.37a.5.5,0,0,1,.9-.45l3.68,7.38a.49.49,0,0,1-.22.67A.59.59,0,0,1,338.61,332.9Z" style="fill:#263238"></path><line x1="341.68" y1="321.34" x2="347.82" y2="332.4" style="fill:#fff"></line><path d="M347.82,332.9a.49.49,0,0,1-.43-.26l-6.15-11.06a.5.5,0,0,1,.88-.48l6.14,11.06a.51.51,0,0,1-.19.68A.54.54,0,0,1,347.82,332.9Z" style="fill:#263238"></path><line x1="349.67" y1="320.11" x2="352.12" y2="329.33" style="fill:#fff"></line><path d="M352.13,329.83a.5.5,0,0,1-.49-.37l-2.46-9.22a.5.5,0,0,1,.36-.61.49.49,0,0,1,.61.35l2.46,9.22a.5.5,0,0,1-.36.61Z" style="fill:#263238"></path><line x1="354.58" y1="315.81" x2="361.34" y2="327.48" style="fill:#fff"></line><path d="M361.34,328a.5.5,0,0,1-.43-.25l-6.76-11.67a.49.49,0,0,1,.18-.68.51.51,0,0,1,.69.18l6.75,11.67a.51.51,0,0,1-.18.69A.54.54,0,0,1,361.34,328Z" style="fill:#263238"></path><line x1="364.72" y1="317.88" x2="367.18" y2="327.1" style="fill:#fff"></line><path d="M367.18,327.6a.51.51,0,0,1-.49-.37L364.24,318a.48.48,0,0,1,.35-.61.49.49,0,0,1,.61.35l2.46,9.22a.5.5,0,0,1-.35.61Z" style="fill:#263238"></path><line x1="369.63" y1="313.58" x2="376.39" y2="325.25" style="fill:#fff"></line><path d="M376.39,325.75a.5.5,0,0,1-.43-.25l-6.76-11.67a.5.5,0,0,1,.18-.68.51.51,0,0,1,.69.18L376.83,325a.5.5,0,0,1-.44.75Z" style="fill:#263238"></path><line x1="375.62" y1="316.66" x2="379.3" y2="324.04" style="fill:#fff"></line><path d="M379.3,324.54a.48.48,0,0,1-.44-.28l-3.69-7.37a.5.5,0,0,1,.22-.67.49.49,0,0,1,.67.22l3.69,7.37a.5.5,0,0,1-.22.67A.49.49,0,0,1,379.3,324.54Z" style="fill:#263238"></path><line x1="382.38" y1="312.98" x2="388.52" y2="324.04" style="fill:#fff"></line><path d="M388.52,324.54a.51.51,0,0,1-.44-.26l-6.14-11.06a.49.49,0,0,1,.19-.68.5.5,0,0,1,.68.19L389,323.79a.5.5,0,0,1-.2.68A.42.42,0,0,1,388.52,324.54Z" style="fill:#263238"></path><line x1="390.36" y1="311.75" x2="392.82" y2="320.96" style="fill:#fff"></line><path d="M392.82,321.46a.49.49,0,0,1-.48-.37l-2.46-9.21a.51.51,0,0,1,.35-.62.5.5,0,0,1,.62.36l2.45,9.22a.49.49,0,0,1-.35.61Z" style="fill:#263238"></path><line x1="395.28" y1="307.45" x2="402.04" y2="319.12" style="fill:#fff"></line><path d="M402,319.62a.5.5,0,0,1-.43-.25l-6.76-11.67a.5.5,0,1,1,.86-.5l6.76,11.67a.49.49,0,0,1-.18.68A.47.47,0,0,1,402,319.62Z" style="fill:#263238"></path><line x1="400.42" y1="308.58" x2="404.11" y2="315.95" style="fill:#fff"></line><path d="M404.11,316.45a.51.51,0,0,1-.45-.27L400,308.8a.49.49,0,0,1,.22-.67.5.5,0,0,1,.67.23l3.69,7.37a.5.5,0,0,1-.22.67A.48.48,0,0,1,404.11,316.45Z" style="fill:#263238"></path><line x1="407.18" y1="304.89" x2="413.33" y2="315.95" style="fill:#fff"></line><path d="M413.33,316.45a.5.5,0,0,1-.44-.25l-6.14-11.06a.49.49,0,0,1,.19-.68.5.5,0,0,1,.68.19l6.15,11.06a.51.51,0,0,1-.2.68A.53.53,0,0,1,413.33,316.45Z" style="fill:#263238"></path><line x1="415.17" y1="303.66" x2="417.63" y2="312.88" style="fill:#fff"></line><path d="M417.63,313.38a.5.5,0,0,1-.48-.37l-2.46-9.22a.5.5,0,0,1,.35-.61.51.51,0,0,1,.62.36l2.45,9.21a.49.49,0,0,1-.35.61A.3.3,0,0,1,417.63,313.38Z" style="fill:#263238"></path><line x1="420.09" y1="299.36" x2="426.85" y2="311.04" style="fill:#fff"></line><path d="M426.85,311.54a.51.51,0,0,1-.44-.25l-6.76-11.68a.51.51,0,0,1,.19-.68.5.5,0,0,1,.68.18l6.76,11.68a.49.49,0,0,1-.18.68A.47.47,0,0,1,426.85,311.54Z" style="fill:#263238"></path><path d="M234.82,209.51c-7.59-.35-20.69,3.44-27.24,7.92s-8.62,7.93-12.41,9.31-5.17,0-4.83-3.79,1.73-11,4.14-13.44,6.55-5.52,10.69-10,12.06-9.66,12.06-9.66,12.07-4.13,15.17-7.93a38.46,38.46,0,0,1,5.86-5.86s-1.72,2.07,6.9,5.17l8.62,3.11a25,25,0,0,0,6.55,5.51c1.28.79,3,2,4.82,3.15a28.24,28.24,0,0,1,7.94-.73c8.34.55,8.16,2,9.77-3.79a19,19,0,0,0-.47-3.45c-.69-2.76-6.2-6.21-6.2-6.21s-9.31-9.31-18.27-15.17a98.6,98.6,0,0,0-17.24-9,32.53,32.53,0,0,0-11.38-4.14,20.6,20.6,0,0,0-12.07,2.07s-6.2-3.45-12.06-3.45-10.69,1-21.72,4.83c0,0-8.62-3.45-12.42-1S159,164.34,159,164.34s-13.45,2.41-17.24,9-43.1,53.44-49,58.61-29.3,38.27-33.09,45.86-13.11,24.13-17.59,41-1.72,31.37,9.66,38.95,22.43,8.05,31.71,6.55c7.9-1.26,14.14-2.75,17.59-4.82,0,0,7.93-37.24,12.75-42.41s24.14-15.51,36.2-21,41-26.89,45.51-33.1,17.93-12.75,22.76-16.89,12.41-11,16.2-13.45,14.48-3.1,19.31-4.13,6.55-6.55,2.41-10.69S242.4,209.85,234.82,209.51Z" style="fill:#fff"></path><path d="M75.34,365.48a41.94,41.94,0,0,1-23.87-7.31c-11.15-7.43-14.65-21.46-9.86-39.5C45.44,304.25,52.8,290,57.2,281.51c.77-1.5,1.46-2.83,2-4,3.94-7.87,27.46-40.92,33.21-46,6-5.31,45.28-52.31,48.86-58.49,3.68-6.35,15.78-8.86,17.41-9.17,1-1.13,8.45-9,12.06-11.34s11.39.43,12.69.93c10.83-3.72,15.72-4.8,21.71-4.8,5.34,0,10.84,2.74,12.06,3.38a20.93,20.93,0,0,1,12.15-2,32.62,32.62,0,0,1,11.52,4.18,100,100,0,0,1,17.29,9c8.61,5.63,17.63,14.52,18.31,15.2.59.37,5.68,3.67,6.38,6.48a19.3,19.3,0,0,1,.48,3.55.88.88,0,0,1,0,.16c-1.34,4.82-1.63,5-6.28,4.52-1.06-.12-2.37-.26-4-.37a27.45,27.45,0,0,0-7.79.72.47.47,0,0,1-.38-.07L262.7,192c-1-.65-1.88-1.25-2.63-1.71a26.31,26.31,0,0,1-6.6-5.52L245,181.7c-4.29-1.54-6.72-3.07-7.26-4.56a41,41,0,0,0-4.94,5.1c-3.08,3.76-14.3,7.71-15.33,8.07-.69.45-8.05,5.34-11.93,9.54a92.13,92.13,0,0,1-7.4,7c-1.29,1.14-2.41,2.11-3.3,3-2.24,2.24-3.64,9.25-4,13.14-.16,1.78.08,2.94.72,3.44s1.8.43,3.44-.17c2-.72,3.49-2.05,5.57-3.89A64.15,64.15,0,0,1,207.3,217c6.65-4.55,19.76-8.37,27.54-8s17.41,4.12,21.71,8.42a7.32,7.32,0,0,1,2.22,7.2,6.32,6.32,0,0,1-4.89,4.33c-1.48.31-3.51.6-5.67.9-4.87.69-10.92,1.54-13.47,3.17-2.89,1.84-8,6.28-12.46,10.2-1.32,1.15-2.58,2.25-3.69,3.2a78.58,78.58,0,0,1-7.87,5.37c-5.63,3.54-12,7.56-14.8,11.44-4.36,6-33.33,27.6-45.71,33.26-12.08,5.52-31.33,15.86-36,20.91s-12.55,41.8-12.63,42.17a.51.51,0,0,1-.24.33c-3.16,1.9-8.8,3.45-17.76,4.89A51.82,51.82,0,0,1,75.34,365.48ZM174.72,152.6a6.35,6.35,0,0,0-3.42.79c-3.69,2.35-11.88,11.2-12,11.29a.55.55,0,0,1-.28.15c-.14,0-13.27,2.45-16.9,8.73s-43,53.4-49.06,58.73c-5.7,5-29.06,37.88-33,45.7-.56,1.14-1.26,2.47-2,4-4.38,8.47-11.72,22.64-15.51,36.95-4.67,17.6-1.32,31.24,9.44,38.42,9.37,6.24,19.63,8.36,31.36,6.47,8.65-1.39,14.14-2.87,17.22-4.65.72-3.35,8.11-37.37,12.84-42.43,5-5.38,24.66-15.8,36.36-21.14,12.28-5.62,41-27,45.31-32.94,2.91-4,9.37-8.11,15.08-11.7a76.17,76.17,0,0,0,7.75-5.28c1.11-.95,2.36-2,3.68-3.19,4.51-3.95,9.63-8.42,12.58-10.3,2.74-1.74,8.65-2.57,13.87-3.31,2.14-.3,4.16-.58,5.6-.89a5.33,5.33,0,0,0,4.14-3.64,6.25,6.25,0,0,0-2-6.21c-4.07-4.07-13.71-7.79-21.05-8.13h0c-7.45-.33-20.54,3.48-26.93,7.85a63.85,63.85,0,0,0-6.63,5.28c-2.07,1.84-3.71,3.29-5.89,4.08-2,.74-3.45.74-4.39,0s-1.3-2.14-1.11-4.32c.38-4.19,1.84-11.31,4.29-13.76.91-.91,2-1.9,3.34-3a92.29,92.29,0,0,0,7.33-6.94c4.13-4.48,11.83-9.52,12.16-9.74l.11-.05c.12,0,12-4.13,15-7.77a38.45,38.45,0,0,1,5.94-6,.5.5,0,0,1,.69.72h0a.57.57,0,0,0,0,.41c.18.54,1.19,2,6.66,4l8.62,3.11a.48.48,0,0,1,.23.17,25.27,25.27,0,0,0,6.41,5.39c.76.47,1.67,1.06,2.66,1.72l2,1.32a28.2,28.2,0,0,1,7.87-.7c1.66.11,3,.25,4,.37,4,.44,4,.45,5.19-3.71a18.36,18.36,0,0,0-.44-3.28c-.53-2.1-4.5-5-6-5.9l-.09-.08c-.09-.09-9.37-9.34-18.19-15.1a98.77,98.77,0,0,0-17.14-8.91l-.09,0A32.6,32.6,0,0,0,229.22,151a20.1,20.1,0,0,0-11.74,2,.53.53,0,0,1-.49,0c-.06,0-6.16-3.39-11.82-3.39-5.89,0-10.73,1.08-21.56,4.8a.47.47,0,0,1-.35,0A28.17,28.17,0,0,0,174.72,152.6ZM101.05,359.48h0Z" style="fill:#263238"></path><path d="M188.94,167.73a.5.5,0,0,1-.14-1c6.4-1.89,11.24-4.05,14-6.25a60.07,60.07,0,0,1,14.27-8.35.5.5,0,0,1,.64.29.5.5,0,0,1-.29.65,58.72,58.72,0,0,0-14,8.19c-2.89,2.31-7.71,4.47-14.33,6.43Z" style="fill:#263238"></path><path d="M179.65,170a.5.5,0,0,1-.09-1s1.81-.34,4.41-1a.5.5,0,1,1,.24,1c-2.63.64-4.45,1-4.46,1Z" style="fill:#263238"></path><path d="M166.9,168.29a.5.5,0,0,1-.12-1c.2-.05,20.37-4.85,27.13-8.23,6.92-3.46,16-3.5,16.43-3.5a.5.5,0,0,1,.5.5.51.51,0,0,1-.5.5c-.09,0-9.28,0-16,3.39-6.87,3.44-26.51,8.12-27.35,8.31Z" style="fill:#263238"></path><path d="M161.38,165.53a.51.51,0,0,1-.5-.45.51.51,0,0,1,.46-.55c1-.09,3.83-.55,4.86-1.58,1.39-1.39,15.42-8.58,17-9.4a.5.5,0,0,1,.67.22.49.49,0,0,1-.22.67c-6.2,3.18-15.79,8.25-16.76,9.22-1.49,1.49-5.32,1.85-5.48,1.87Z" style="fill:#263238"></path><path d="M183.79,234.83a.5.5,0,0,1,0-1c5.56-.33,11-7.32,11-7.39a.5.5,0,0,1,.7-.09.51.51,0,0,1,.1.7c-.23.3-5.73,7.42-11.75,7.78Z" style="fill:#263238"></path><path d="M242.38,230.28l-.14,0a2.16,2.16,0,0,1-1.6-1.28,1.7,1.7,0,0,1,.28-1.44c.26-.7,2.28-5.46,9.32-6.8l7.24-1.38a.5.5,0,1,1,.18,1l-7.24,1.38c-6.84,1.3-8.51,6-8.58,6.22a.46.46,0,0,1-.09.15h0a.8.8,0,0,0-.15.6c.07.23.4.45.93.61a.5.5,0,0,1,.33.62A.49.49,0,0,1,242.38,230.28Z" style="fill:#263238"></path><path d="M224.93,233.26l-.12,0a.5.5,0,0,1-.36-.6,16.15,16.15,0,0,0-.62-8.43.5.5,0,0,1,.93-.36,16.81,16.81,0,0,1,.66,9A.5.5,0,0,1,224.93,233.26Z" style="fill:#263238"></path><path d="M227.7,234.11l-.13,0a.5.5,0,0,1-.35-.61c2-7.32-1.38-12.08-1.41-12.13a.51.51,0,0,1,.1-.7.5.5,0,0,1,.7.11c.16.2,3.74,5.18,1.57,13A.5.5,0,0,1,227.7,234.11Z" style="fill:#263238"></path><path d="M187.38,228c-5.85,0-8.42-5.8-8.45-5.87a.5.5,0,0,1,.27-.65.48.48,0,0,1,.65.26c.13.29,3.12,7,10.25,4.82a.5.5,0,0,1,.62.34.48.48,0,0,1-.33.62A10.33,10.33,0,0,1,187.38,228Z" style="fill:#263238"></path></g><g id="freepik--hand-2--inject-877"><path d="M318.63,250.85s9.68,21.79,12.8,42.9,7.26,31.48,7.26,31.48l17.3-2.42s-4.5-29.06-17.64-49.13S318.63,250.85,318.63,250.85Z" style="fill:#263238"></path><path d="M338.69,325.73a.48.48,0,0,1-.46-.32c0-.1-4.21-10.67-7.3-31.59s-12.66-42.55-12.76-42.77a.5.5,0,0,1,.1-.55.47.47,0,0,1,.55-.11c.27.11,6.86,3.05,19.94,23s17.68,49,17.72,49.32a.45.45,0,0,1-.09.37.5.5,0,0,1-.33.2l-17.3,2.42Zm-19-73.62c2.2,5.25,9.58,23.75,12.21,41.56,2.75,18.64,6.35,29,7.1,31l16.39-2.3c-.67-3.93-5.49-30.12-17.48-48.43C328.31,259.28,322.2,253.9,319.71,252.11Z" style="fill:#263238"></path><path d="M287.71,253.17a23.71,23.71,0,0,1-5.45-.78.5.5,0,1,1,.27-1,20.39,20.39,0,0,0,6.35.67.49.49,0,0,1,.56.44.51.51,0,0,1-.43.56A11.09,11.09,0,0,1,287.71,253.17Z" style="fill:#263238"></path><path d="M279.29,251.72a.57.57,0,0,1-.18,0c-18.27-7.24-23.68-21.53-23.73-21.67a.5.5,0,0,1,.94-.35c.05.14,5.32,14,23.16,21.09a.51.51,0,0,1,.28.65A.51.51,0,0,1,279.29,251.72Z" style="fill:#263238"></path><path d="M277.57,234.14a.59.59,0,0,1-.22,0c-12-5.62-8.92-18.71-8.89-18.84a.51.51,0,0,1,.61-.37.5.5,0,0,1,.36.6c-.12.51-2.86,12.43,8.35,17.71a.49.49,0,0,1,.24.66A.5.5,0,0,1,277.57,234.14Z" style="fill:#263238"></path><path d="M279,214.14a.51.51,0,0,1-.37-.15.5.5,0,0,1,0-.71,46.24,46.24,0,0,0,10.56-17.37.5.5,0,0,1,.63-.33.51.51,0,0,1,.32.63A47.24,47.24,0,0,1,279.29,214,.47.47,0,0,1,279,214.14Z" style="fill:#263238"></path><path d="M290.67,237.93h0c-4.87-.35-10.64-3.38-10.88-3.5a.5.5,0,0,1,.46-.89c.06,0,5.83,3.06,10.49,3.39a.5.5,0,0,1,0,1Z" style="fill:#263238"></path><line x1="301.8" y1="223.78" x2="276.42" y2="229.9" style="fill:#fff"></line><path d="M276.42,230.4a.5.5,0,0,1-.11-1l25.38-6.13a.5.5,0,0,1,.6.37.51.51,0,0,1-.37.61l-25.38,6.12Z" style="fill:#263238"></path><line x1="273.17" y1="230.52" x2="260.26" y2="233.6" style="fill:#fff"></line><path d="M260.26,234.1a.49.49,0,0,1-.49-.38.51.51,0,0,1,.37-.61L273.05,230a.51.51,0,0,1,.61.37.5.5,0,0,1-.37.6l-12.92,3.08Z" style="fill:#263238"></path><path d="M327.08,408.16l-.66-.75c.11-.1,11.16-10,12.08-30.74.66-14.95-9.7-27.38-19.73-39.41a149.91,149.91,0,0,1-10.82-14c-10.59-16.36-5.74-39.94,2.33-56.55,7.77-16-1.27-28.1-1.36-28.22l.79-.61c.1.13,9.52,12.69,1.47,29.26-7.95,16.37-12.75,39.56-2.39,55.58a150.14,150.14,0,0,0,10.75,13.91c10.15,12.17,20.64,24.76,20,40.09C338.56,397.88,327.19,408.06,327.08,408.16Z" style="fill:#263238"></path><path d="M424.71,230s-12.17-9.54-15.46-12.83-17.44-26-23-29.61-16.12-1.32-18.1-1-3.61.66-3.61.66-2.64-1.64-9.87-.66-11.19,1-21.72,2.64-22.37,5.59-25.66,8.22L304,200.09s-7.56,1.32-11.51,4.61-7.57,6.91-9.87,7.89-7.9,2.31-8.23,5.27,2.31,6.58,6.91,7.24,12.17,1,12.17,1,0,2,7.9,5.92,10.53,8.56,13.82,14.15S329,270.82,330,281.35s8.56,22.37,9.87,24,16.12,33.23,24,40.46,14.47,20.07,17.43,25.67,5.27,26.64,5.27,26.64,7.24,5.27,28.95,1.65S448.4,385,451,379.06a22.12,22.12,0,0,0,.66-15.79c-1.32-3.29-6.58-16.78-8.89-27s-6.25-25.66-5.59-31.58,2.3-44.74.33-56.91S424.71,230,424.71,230Z" style="fill:#fff"></path><path d="M401.49,401.57c-10.92,0-15-2.86-15.24-3a.55.55,0,0,1-.2-.35c0-.21-2.33-21-5.21-26.47l-.42-.8c-3.06-5.8-9.43-17.87-16.91-24.73-6-5.48-15.68-24.39-20.9-34.55-1.6-3.13-2.87-5.6-3.17-6-1.14-1.43-8.95-13.39-10-24.28-.87-9.34-9.67-26.39-14.73-35l-.14-.22c-3.25-5.53-5.82-9.9-13.47-13.73-6.11-3-7.67-5-8.05-5.88-1.56-.08-7.86-.41-11.87-1-5-.71-7.69-4.6-7.33-7.79.3-2.7,4.12-4.06,6.9-5.06.62-.22,1.18-.42,1.62-.61,1.55-.66,3.77-2.62,6.35-4.88,1.09-1,2.23-2,3.4-2.94,3.77-3.14,10.57-4.49,11.62-4.69l3.19-2.55c3.54-2.83,15.64-6.73,25.9-8.33,6.33-1,10.23-1.38,14-1.75,2.49-.25,4.83-.49,7.72-.88,6.36-.87,9.28.27,10,.63.48-.1,1.86-.36,3.46-.63l.59-.1c3.1-.57,12.53-2.29,17.86,1.16,3.65,2.36,10.63,12.34,16.24,20.35a111.23,111.23,0,0,0,6.87,9.33c3.15,3.14,14.67,12.2,15.39,12.76s11.12,6.23,13,18.11c2,12.34.28,51.61-.32,57-.55,4.94,2.22,16.89,4.45,26.49.4,1.73.79,3.39,1.13,4.92,2.35,10.4,7.79,24.24,8.86,26.9a22.48,22.48,0,0,1-.66,16.18c-2.5,5.62-13.21,17.24-35.91,21A85.64,85.64,0,0,1,401.49,401.57ZM387,397.85c1.23.73,9,4.68,28.4,1.44,20.66-3.44,32.34-14.1,35.15-20.43a21.74,21.74,0,0,0,.65-15.4c-1.07-2.68-6.54-16.58-8.9-27.06-.35-1.53-.73-3.19-1.13-4.91-2.25-9.68-5-21.72-4.48-26.83.61-5.42,2.33-44.52.34-56.78-1.91-11.78-12.46-17.35-12.57-17.41l-.08-.05c-.5-.39-12.23-9.59-15.51-12.87a108.11,108.11,0,0,1-7-9.45c-5.27-7.53-12.48-17.83-16-20.09-5-3.24-14.14-1.57-17.14-1l-.6.11c-2,.32-3.6.65-3.61.65a.51.51,0,0,1-.36-.06s-2.63-1.53-9.54-.59c-2.9.4-5.26.63-7.75.88-3.76.38-7.65.76-13.95,1.75-10.86,1.7-22.38,5.69-25.43,8.12l-3.29,2.63a.37.37,0,0,1-.22.1c-.08,0-7.48,1.34-11.28,4.5-1.17,1-2.3,2-3.38,2.92-2.64,2.32-4.92,4.33-6.61,5.05-.46.2-1,.41-1.68.63-2.4.86-6,2.16-6.25,4.23-.3,2.74,2.23,6.08,6.48,6.69,4.53.65,12.05,1,12.13,1a.5.5,0,0,1,.47.5h0s.43,1.88,7.62,5.48c7.92,4,10.69,8.66,13.89,14.11l.14.23c.56.95,13.75,23.49,14.87,35.41,1,10.48,8.7,22.42,9.76,23.75.35.43,1.31,2.29,3.28,6.13,5.19,10.11,14.84,28.92,20.69,34.28,7.6,7,14,19.14,17.12,25l.42.8C384.56,376.62,386.74,395.39,387,397.85Z" style="fill:#263238"></path><path d="M378,244.35h-.08c-.19,0-4.81-.71-6.89-3.13a.5.5,0,0,1,.76-.65c1.83,2.13,6.23,2.79,6.28,2.79a.5.5,0,0,1-.07,1Z" style="fill:#263238"></path><path d="M368.26,237.71a.52.52,0,0,1-.38-.17c-5.55-6.45-15.38-17.74-18.85-21l-.3-.28c-4.5-4.19-11.31-10.51-20.5-12.1-9.42-1.62-24.18-3.59-24.32-3.61a.5.5,0,0,1-.43-.56.49.49,0,0,1,.56-.43c.15,0,14.92,2,24.36,3.62s16.42,8.08,21,12.35l.3.28c3.51,3.25,13.37,14.58,18.93,21a.5.5,0,0,1-.38.83Z" style="fill:#263238"></path><path d="M400.69,230.53a.5.5,0,0,1-.41-.22c-.84-1.27-2.86-3.77-5.41-6.95-4.3-5.35-10.2-12.69-14.26-18.82a.5.5,0,0,1,.84-.55c4,6.09,9.91,13.41,14.2,18.75,2.57,3.19,4.59,5.71,5.46,7a.51.51,0,0,1-.14.7A.54.54,0,0,1,400.69,230.53Z" style="fill:#263238"></path><path d="M378.65,200.92a.5.5,0,0,1-.43-.25,30.64,30.64,0,0,0-13.89-12.94.5.5,0,1,1,.36-.93,31.07,31.07,0,0,1,14.4,13.37.51.51,0,0,1-.19.69A.54.54,0,0,1,378.65,200.92Z" style="fill:#263238"></path><path d="M421.75,234.48a.46.46,0,0,1-.33-.13s-3.28-2.94-4.22-3.57-6.41-7.25-7-8a.5.5,0,1,1,.77-.63c2.27,2.77,6.13,7.34,6.8,7.79,1,.67,4.2,3.54,4.34,3.67a.5.5,0,0,1-.34.87Z" style="fill:#263238"></path><path d="M419.78,262.77a.5.5,0,0,1-.5-.5s0-1.77-.2-4.46a.5.5,0,0,1,1-.07c.19,2.72.2,4.51.2,4.53A.5.5,0,0,1,419.78,262.77Z" style="fill:#263238"></path><path d="M419.27,254.91a.5.5,0,0,1-.49-.45c0-.43-.1-.88-.16-1.34-.62-5-8.3-11.46-8.38-11.52a.5.5,0,0,1,.64-.77c.33.28,8.06,6.77,8.73,12.17.06.46.11.92.16,1.36a.5.5,0,0,1-.44.55Z" style="fill:#263238"></path><path d="M350.69,294.68h-.09a.49.49,0,0,1-.4-.58l.62-3.42a14.09,14.09,0,0,1-1.61-4.61,33.2,33.2,0,0,1-.35-7.55c-.46-.83-3-5.34-4.5-7.39s-.56-5.8-.19-7c-1.17-.77-5.45-3.6-11.54-8-6.92-5-16.26-22.94-17.47-25.29a32.92,32.92,0,0,1-7.11-2.29,68.76,68.76,0,0,1-9.62-5.42,30.57,30.57,0,0,1-4.73,3.41.49.49,0,0,1-.68-.17.5.5,0,0,1,.17-.69,27.43,27.43,0,0,0,4.84-3.54.5.5,0,0,1,.63-.06,68.32,68.32,0,0,0,9.79,5.55,30.08,30.08,0,0,0,7.1,2.26.51.51,0,0,1,.38.27c.1.2,10.23,20,17.29,25.16S345,263.47,345,263.5a.49.49,0,0,1,.2.58c0,.05-1.54,4.39-.07,6.45,1.64,2.3,4.52,7.4,4.64,7.62a.45.45,0,0,1,.06.28,33,33,0,0,0,.32,7.43,12.16,12.16,0,0,0,1.56,4.41.52.52,0,0,1,.09.38l-.66,3.62A.49.49,0,0,1,350.69,294.68Z" style="fill:#263238"></path><path d="M349.37,301.92h-.09a.5.5,0,0,1-.4-.58l.49-2.71a.51.51,0,0,1,.58-.4.5.5,0,0,1,.41.58l-.5,2.71A.49.49,0,0,1,349.37,301.92Z" style="fill:#263238"></path></g><g id="freepik--pins-2--inject-877"><path d="M226.09,408.43a3,3,0,0,1-1.19-.23,3.2,3.2,0,0,1-1.79-4.16A3.2,3.2,0,0,1,229,404a3.2,3.2,0,0,1-2.94,4.46Zm0-5.4a2.16,2.16,0,0,0-.86.17,2.21,2.21,0,0,0-1.16,2.9,2.2,2.2,0,1,0,2-3.07Z" style="fill:#263238"></path><path d="M249.63,460.62a.49.49,0,0,1-.45-.29l-23.25-52a.58.58,0,0,1,0-.39.57.57,0,0,1,.27-.28l1.6-.68a.53.53,0,0,1,.39,0,.51.51,0,0,1,.27.27l21.65,52.66a.5.5,0,0,1-.27.65A.45.45,0,0,1,249.63,460.62ZM227.05,408.4l9.66,21.6-9-21.88Z" style="fill:#263238"></path><path d="M244.74,398a3.21,3.21,0,1,1,3.18-3.59h0a3.14,3.14,0,0,1-.66,2.36,3.19,3.19,0,0,1-2.14,1.2Zm0-5.41h-.27a2.22,2.22,0,0,0-1.93,2.45,2.18,2.18,0,0,0,.83,1.47,2.21,2.21,0,0,0,3.55-2h0a2.21,2.21,0,0,0-2.18-1.94Z" style="fill:#263238"></path><path d="M251.84,454.56a.51.51,0,0,1-.5-.43l-7.62-56.43a.5.5,0,0,1,.43-.56l1.73-.21a.47.47,0,0,1,.37.11.48.48,0,0,1,.18.34L252.34,454a.51.51,0,0,1-.44.55Zm-7.06-56.49,3.16,23.44L245.49,398Z" style="fill:#263238"></path><path d="M276,467.79a3.21,3.21,0,0,1-3.2-3.2,3.21,3.21,0,0,1,3.2-3.21h0a3.21,3.21,0,1,1,0,6.41Zm0-5.41h0a2.21,2.21,0,0,0,0,4.41,2.21,2.21,0,0,0,2.21-2.2,2.22,2.22,0,0,0-2.21-2.21Z" style="fill:#263238"></path><path d="M276.83,462.29h-1.74a.51.51,0,0,1-.5-.51l.86-56.94a.5.5,0,0,1,.5-.49.51.51,0,0,1,.5.49l.88,56.94a.54.54,0,0,1-.14.36A.55.55,0,0,1,276.83,462.29Zm-1.23-1h.72L276,437.63Z" style="fill:#263238"></path><path d="M266.17,443.8a3.21,3.21,0,0,1-3.2-3.21h0a3.21,3.21,0,0,1,3.2-3.2h0a3.21,3.21,0,0,1,3.21,3.2,3.21,3.21,0,0,1-3.21,3.21Zm-2.2-3.21a2.21,2.21,0,0,0,2.2,2.21,2.22,2.22,0,0,0,2.21-2.21,2.15,2.15,0,0,0-.65-1.55,2.19,2.19,0,0,0-1.56-.65h0a2.21,2.21,0,0,0-2.2,2.2Z" style="fill:#263238"></path><path d="M267,438.29H265.3a.5.5,0,0,1-.35-.14.51.51,0,0,1-.15-.36l.86-56.94a.5.5,0,0,1,1,0l.88,56.94a.48.48,0,0,1-.5.5Zm-1.23-1h.72l-.36-23.64Z" style="fill:#263238"></path></g><g id="freepik--pins-1--inject-877"><path d="M46.74,149.27a3.21,3.21,0,1,1,3.21-3.2A3.21,3.21,0,0,1,46.74,149.27Zm0-5.41A2.21,2.21,0,1,0,49,146.07,2.21,2.21,0,0,0,46.74,143.86Z" style="fill:#263238"></path><path d="M46.74,206.3a.51.51,0,0,1-.5-.49l-.87-56.94a.51.51,0,0,1,.5-.51h1.74a.55.55,0,0,1,.36.15.54.54,0,0,1,.14.36l-.87,56.94A.5.5,0,0,1,46.74,206.3Zm-.36-56.94L46.74,173l.36-23.66Z" style="fill:#263238"></path><path d="M68,147a3.21,3.21,0,1,1,3.07-2.3h0A3.21,3.21,0,0,1,68,147Zm0-5.41a2.21,2.21,0,0,0-2.12,1.58,2.2,2.2,0,0,0,1.5,2.74,2.2,2.2,0,0,0,1.24-4.23A2.27,2.27,0,0,0,68,141.59Zm2.59,3h0Z" style="fill:#263238"></path><path d="M51.16,201.6l-.14,0a.51.51,0,0,1-.35-.62L65.91,146.1a.57.57,0,0,1,.24-.31.53.53,0,0,1,.39,0l1.66.49a.5.5,0,0,1,.3.25.46.46,0,0,1,0,.38L51.63,201.24A.49.49,0,0,1,51.16,201.6Zm15.58-54.75-6.33,22.8,7-22.59Z" style="fill:#263238"></path><path d="M69.18,223.48a3.06,3.06,0,0,1-1.26-.26,3.2,3.2,0,1,1,4.2-1.68,3.2,3.2,0,0,1-2.94,1.94Zm0-5.41a2.23,2.23,0,0,0-2,1.34,2.2,2.2,0,0,0,1.16,2.89,2.2,2.2,0,0,0,2.89-1.15,2.21,2.21,0,0,0-1.15-2.9A2.26,2.26,0,0,0,69.18,218.07Z" style="fill:#263238"></path><path d="M71.08,218.55a.65.65,0,0,1-.2,0l-1.59-.69a.49.49,0,0,1-.26-.66l23.23-52a.49.49,0,0,1,.65-.25.51.51,0,0,1,.27.65L71.54,218.24a.51.51,0,0,1-.27.27A.43.43,0,0,1,71.08,218.55Zm-.93-1.45.66.29,9-21.88Z" style="fill:#263238"></path><path d="M69.64,197.57a3.09,3.09,0,0,1-1.26-.26,3.2,3.2,0,0,1-1.68-4.2h0a3.2,3.2,0,1,1,2.94,4.46Zm0-5.4a2.33,2.33,0,0,0-.82.15,2.25,2.25,0,0,0-1.21,1.18h0a2.21,2.21,0,0,0,1.16,2.9,2.21,2.21,0,1,0,.87-4.23Zm-2.49,1.13h0Z" style="fill:#263238"></path><path d="M71.54,192.64a.48.48,0,0,1-.2,0l-1.59-.69a.49.49,0,0,1-.26-.66l23.23-52a.5.5,0,0,1,.92.39L72,192.33a.51.51,0,0,1-.27.27A.41.41,0,0,1,71.54,192.64Zm-.93-1.44.66.28,9-21.89Z" style="fill:#263238"></path></g></svg>